<svg width="60" height="60" viewBox="0 0 60 60" fill="none" xmlns="http://www.w3.org/2000/svg">
<path fill-rule="evenodd" clip-rule="evenodd" d="M0 30C0 13.4315 13.4315 0 30 0C46.5685 0 60 13.4315 60 30C60 46.5685 46.5685 60 30 60C13.4315 60 0 46.5685 0 30Z" fill="#FF804E"/>
<path d="M0.5 30C0.5 13.7076 13.7076 0.5 30 0.5C46.2924 0.5 59.5 13.7076 59.5 30C59.5 46.2924 46.2924 59.5 30 59.5C13.7076 59.5 0.5 46.2924 0.5 30Z" stroke="#0058FF" stroke-opacity="0.1"/>
<path fill-rule="evenodd" clip-rule="evenodd" d="M42.9018 28.3753C42.9018 27.4588 42.9018 26.5422 42.9222 25.6257C42.9222 23.813 42.9426 21.9799 42.9426 20.1673C42.9426 18.8434 42.9629 17.5195 42.9629 16.1956C42.9629 15.4827 42.8 14.8106 42.2704 14.3014C41.7816 13.833 41.1502 13.609 40.4984 13.609C40.3151 13.609 40.1318 13.609 39.9485 13.609C38.4006 13.609 36.8526 13.609 35.3047 13.609C35.2639 13.609 35.2232 13.609 35.1825 13.609C35.3861 13.8126 35.5898 14.0163 35.7935 14.22C35.7935 13.8941 35.7935 13.5682 35.7935 13.222C35.7935 12.7332 35.7528 12.2647 35.3658 11.8981C35.0195 11.5518 34.5714 11.4907 34.103 11.4907C33.6956 11.4907 33.3086 11.4907 32.9013 11.4907C32.5958 11.4907 32.2699 11.4907 31.9644 11.4907C32.168 11.6944 32.3717 11.8981 32.5754 12.1018C32.555 11.0019 32.2495 9.84099 31.4348 9.04665C30.8849 8.51711 30.172 8.19123 29.4184 8.06902C27.8093 7.80424 25.9966 8.29306 25.019 9.67805C24.5301 10.3705 24.3265 11.2667 24.3265 12.1018C24.5301 11.8981 24.7338 11.6944 24.9375 11.4907C24.2654 11.4907 23.5932 11.4907 22.9415 11.4907C22.5545 11.4907 22.1675 11.4907 21.8212 11.6944C21.312 11.9999 21.1491 12.5091 21.1491 13.059C21.1491 13.446 21.1491 13.8126 21.1491 14.1996C21.3528 13.9959 21.5565 13.7923 21.7601 13.5886C20.1307 13.5886 18.5013 13.5886 16.8719 13.5886C16.5663 13.5886 16.2812 13.5886 15.9961 13.6293C15.161 13.7515 14.4277 14.3422 14.1222 15.1365C14 15.5031 14 15.8494 14 16.2364C14 17.2344 14 18.2324 14 19.2304C14 20.9616 14 22.6928 14 24.4444C14 26.583 14 28.7012 14 30.8398C14 32.9784 14 35.1169 14 37.2555C14 39.0682 14 40.8605 14 42.6732C14 43.7527 14 44.8525 14 45.932C14 46.095 14 46.2579 14 46.4208C14.0204 47.8262 15.2424 48.7427 16.5867 48.7427C18.3587 48.7427 20.1103 48.7427 21.8823 48.7427C22.0453 48.7427 22.2286 48.7427 22.3915 48.7427C23.1859 48.7427 23.1859 47.5207 22.3915 47.5207C20.7825 47.5207 19.1734 47.5207 17.544 47.5207C17.2385 47.5207 16.933 47.5207 16.6071 47.5207C16.2201 47.5207 15.935 47.4799 15.6091 47.2355C15.4258 47.0929 15.2832 46.8893 15.2221 46.6041C15.2221 46.5838 15.2017 46.4819 15.2221 46.5634C15.2221 46.5227 15.2221 46.5023 15.2221 46.4616C15.2221 46.4616 15.2221 46.4412 15.2221 46.4208C15.2221 46.4208 15.2221 46.4208 15.2221 46.4005C15.2221 46.3393 15.2221 46.2782 15.2221 46.2171C15.2221 45.321 15.2221 44.4248 15.2221 43.5286C15.2221 41.8789 15.2221 40.2291 15.2221 38.5794C15.2221 36.5223 15.2221 34.4652 15.2221 32.4081C15.2221 30.2898 15.2221 28.1716 15.2221 26.0331C15.2221 24.1796 15.2221 22.3262 15.2221 20.4728C15.2221 19.2507 15.2221 18.0287 15.2221 16.8066C15.2221 16.5419 15.2221 16.2771 15.2221 15.9919C15.2221 15.9716 15.2221 15.9512 15.2221 15.9105C15.2221 15.8697 15.2425 15.7068 15.2221 15.7883C15.3036 15.218 15.8128 14.8106 16.4034 14.7903C17.0348 14.7699 17.6866 14.7903 18.3384 14.7903C19.316 14.7903 20.2733 14.7903 21.2509 14.7903C21.4343 14.7903 21.6176 14.7903 21.7805 14.7903C22.1064 14.7903 22.3915 14.5051 22.3915 14.1792C22.3915 13.7923 22.3915 13.4053 22.3915 12.9979C22.3915 12.9368 22.3915 12.8757 22.3915 12.835C22.3915 12.8554 22.4119 12.9165 22.3915 12.8146C22.3712 12.8554 22.3712 12.8554 22.4119 12.7942C22.3712 12.835 22.3712 12.8146 22.4323 12.7739C22.4934 12.7128 22.4934 12.7128 22.5952 12.7128C22.636 12.7128 22.6563 12.7128 22.6971 12.7128C23.4507 12.7128 24.2043 12.7128 24.9782 12.7128C25.3041 12.7128 25.5893 12.4276 25.5893 12.1018C25.5893 11.9796 25.5893 11.8777 25.6096 11.7555C25.6096 11.6944 25.63 11.6129 25.63 11.5518C25.6504 11.4296 25.6096 11.6944 25.63 11.5722C25.63 11.5315 25.6504 11.4704 25.6504 11.4296C25.6707 11.2667 25.7115 11.1241 25.7726 10.9815C25.793 10.9001 25.8337 10.8186 25.8541 10.7575C25.793 10.9204 25.8541 10.7779 25.8541 10.7575C25.8744 10.6964 25.9152 10.6557 25.9355 10.5946C25.9763 10.5131 26.017 10.4316 26.0781 10.3705C26.0985 10.3298 26.1392 10.2891 26.1596 10.2687C26.0781 10.3909 26.1596 10.2687 26.1799 10.2483C26.241 10.1669 26.3021 10.1057 26.3836 10.0446C26.4243 10.0039 26.4651 9.98355 26.4854 9.94281C26.5058 9.92244 26.5466 9.90208 26.5669 9.88171C26.5058 9.92244 26.5058 9.92244 26.5669 9.88171C27.015 9.5762 27.3409 9.454 27.8908 9.35216C28.2574 9.27069 28.6648 9.25033 29.0721 9.29106C29.0925 9.29106 29.1333 9.29106 29.1536 9.29106C29.2758 9.29106 28.9907 9.27069 29.1129 9.29106C29.174 9.31143 29.2351 9.31143 29.2962 9.33179C29.4388 9.35216 29.5813 9.3929 29.7239 9.43363C29.785 9.454 29.8665 9.47436 29.9276 9.5151C30.0498 9.55583 29.8054 9.454 29.9276 9.5151C29.9683 9.53546 29.9887 9.55583 30.0294 9.55583C30.1924 9.6373 30.335 9.71877 30.4775 9.82061C30.335 9.71878 30.4572 9.80024 30.4775 9.82061C30.5183 9.86134 30.559 9.90208 30.5997 9.94281C30.6812 10.0039 30.7423 10.0854 30.8034 10.1669C30.9052 10.2687 30.7423 10.065 30.8238 10.1872C30.8645 10.2483 30.9052 10.2891 30.9256 10.3502C30.9867 10.452 31.0478 10.5538 31.0886 10.6557C31.0886 10.676 31.17 10.839 31.1089 10.6964C31.1293 10.7575 31.17 10.839 31.1904 10.9001C31.2311 11.0223 31.2719 11.1649 31.2922 11.2871C31.3533 11.5926 31.3737 11.7759 31.3737 12.1221C31.3737 12.448 31.6385 12.7332 31.9847 12.7332C32.7383 12.7332 33.5123 12.7332 34.2659 12.7332C34.3066 12.7332 34.327 12.7332 34.3678 12.7332C34.4696 12.7332 34.4696 12.7332 34.5307 12.7943C34.5714 12.8554 34.5918 12.8554 34.5511 12.8146C34.5918 12.8757 34.5918 12.8961 34.5714 12.835C34.5714 12.8554 34.5714 12.9368 34.5714 12.8554C34.5714 12.9165 34.5714 12.9776 34.5714 13.0183C34.5714 13.4053 34.5714 13.7923 34.5714 14.1996C34.5714 14.5255 34.8566 14.8106 35.1825 14.8106C36.5675 14.8106 37.9525 14.8106 39.3375 14.8106C39.643 14.8106 39.9485 14.8106 40.254 14.8106C40.4985 14.8106 40.7021 14.8106 40.9058 14.8717C41.1298 14.9328 41.3335 15.0754 41.4965 15.2587C41.5576 15.3198 41.5983 15.4013 41.6798 15.5439C41.639 15.4624 41.7205 15.6457 41.7205 15.6661C41.7205 15.6864 41.7612 15.8698 41.7409 15.7883C41.7613 15.8901 41.7409 15.992 41.7409 16.0938C41.7409 17.3158 41.7409 18.5175 41.7205 19.7396C41.7205 21.5319 41.7001 23.3242 41.7001 25.1165C41.7001 26.1757 41.6594 27.2551 41.6798 28.3346C41.6798 28.355 41.6798 28.3753 41.6798 28.3753C41.6798 29.1493 42.9018 29.1493 42.9018 28.3753L42.9018 28.3753Z" fill="white"/>
<path fill-rule="evenodd" clip-rule="evenodd" d="M21.1681 14.6859C21.1681 15.6439 21.9627 16.3777 22.8998 16.398C23.0832 16.398 23.2462 16.398 23.4295 16.398C24.387 16.398 25.3445 16.398 26.3021 16.398C28.6042 16.398 30.9267 16.398 33.2288 16.398C33.4936 16.398 33.7381 16.398 34.0029 16.398C34.9604 16.398 35.755 15.6643 35.7957 14.6859C35.8161 14.3598 35.5105 14.0744 35.1845 14.0744C34.8382 14.0744 34.5937 14.3598 34.5734 14.6859C34.5734 14.6451 34.553 14.7878 34.5326 14.8286C34.5326 14.8286 34.4715 14.9509 34.4919 14.9305C34.3696 15.0935 34.3085 15.1139 34.1455 15.1547C34.0844 15.1751 34.0437 15.1751 33.9622 15.1751C33.7381 15.1751 33.514 15.1751 33.3103 15.1751C32.3731 15.1751 31.436 15.1751 30.4785 15.1751C28.2782 15.1751 26.078 15.1751 23.8777 15.1751C23.5925 15.1751 23.2869 15.1751 23.0017 15.1751C22.9609 15.1751 22.9202 15.1751 22.8795 15.1751C22.7572 15.1751 22.6146 15.1343 22.5127 15.012C22.4516 14.9305 22.3905 14.7878 22.3905 14.6859C22.3905 13.891 21.1681 13.891 21.1681 14.6859L21.1681 14.6859Z" fill="white"/>
<path fill-rule="evenodd" clip-rule="evenodd" d="M18.7035 22.712C19.0902 23.099 19.4565 23.5065 19.8432 23.8936C20.0874 24.138 20.4741 24.1177 20.698 23.8936C21.6546 23.0176 22.5908 22.1415 23.5474 21.2655C23.6898 21.1433 23.8119 21.0211 23.9544 20.8785C24.1986 20.6544 24.1783 20.2469 23.9544 20.0228C23.7102 19.7784 23.3438 19.7987 23.0996 20.0228C22.143 20.8988 21.2068 21.7749 20.2503 22.6509C20.1078 22.7731 19.9857 22.8953 19.8432 23.0379C20.1281 23.0379 20.4131 23.0379 20.698 23.0379C20.3113 22.6509 19.945 22.2434 19.5583 21.8563C19.3344 21.6119 18.9274 21.6322 18.7035 21.8563C18.4592 22.0804 18.4796 22.4675 18.7035 22.712Z" fill="white"/>
<path fill-rule="evenodd" clip-rule="evenodd" d="M27.0109 21.0245C28.9673 21.0245 30.9237 21.0245 32.8801 21.0245C33.1654 21.0245 33.4507 21.0245 33.736 21.0245C34.5308 21.0245 34.5308 19.8005 33.736 19.8005C31.7796 19.8005 29.8232 19.8005 27.8668 19.8005C27.5815 19.8005 27.2962 19.8005 27.0109 19.8005C26.2364 19.8005 26.2161 21.0245 27.0109 21.0245Z" fill="white"/>
<path fill-rule="evenodd" clip-rule="evenodd" d="M27.0109 24.427C28.2948 24.427 29.5787 24.427 30.8422 24.427C32.8801 24.427 34.8977 24.427 36.9356 24.427C37.4043 24.427 37.873 24.427 38.3418 24.427C39.1366 24.427 39.1366 23.2029 38.3418 23.2029C37.0579 23.2029 35.774 23.2029 34.5105 23.2029C32.4725 23.2029 30.455 23.2029 28.417 23.2029C27.9483 23.2029 27.4796 23.2029 27.0109 23.2029C26.2365 23.2029 26.2161 24.427 27.0109 24.427H27.0109Z" fill="white"/>
<path fill-rule="evenodd" clip-rule="evenodd" d="M33.9809 50.7779C33.5126 50.7575 33.0849 50.4723 32.7183 50.1261C32.2296 49.6779 31.8223 49.1279 31.3336 48.6798C30.8041 48.2113 30.2746 47.9668 29.5822 47.9261C28.9509 47.8853 28.2993 47.9668 27.668 47.9465C27.4236 47.9465 27.1996 47.9465 26.9756 47.8853C26.7108 47.8446 26.4868 47.7631 26.3239 47.6205C25.937 47.3353 25.8351 46.8465 25.8148 46.3779C25.7537 45.1761 26.1406 43.7706 25.3668 42.7317C24.9595 42.1817 24.43 41.7539 23.9209 41.2854C23.5543 40.9391 23.1471 40.5113 23.0249 40.0225C22.9027 39.5947 23.086 39.1669 23.371 38.7799C23.758 38.291 24.2671 37.8836 24.7151 37.4558C25.1835 37.0077 25.6519 36.5188 25.7741 35.8466C25.8963 35.1947 25.8352 34.5429 25.8148 33.891C25.7944 33.341 25.7537 32.791 25.9777 32.2818C26.1406 31.8948 26.5072 31.691 26.9756 31.5892C28.1363 31.3651 29.46 31.854 30.6004 31.3448C31.7408 30.8355 32.2703 29.4911 33.3496 28.9003C33.7569 28.6763 34.1846 28.6763 34.6122 28.9003C35.1214 29.1855 35.5083 29.6337 35.8952 30.0614C36.3432 30.5503 36.8116 31.1003 37.4225 31.3651C38.0131 31.6096 38.7055 31.5892 39.3368 31.5485C39.907 31.5281 40.5179 31.467 41.0474 31.5892C41.4954 31.691 41.8416 31.9355 41.9842 32.3429C42.1674 32.8521 42.1471 33.4021 42.1267 33.9521C42.1064 34.604 42.0452 35.2558 42.1878 35.9077C42.4729 37.1706 43.8373 37.8021 44.5705 38.7595C44.8759 39.1669 45.0388 39.5947 44.8963 40.0632C44.7537 40.5317 44.3261 40.9595 43.9595 41.3058C43.4708 41.7743 42.9209 42.2021 42.534 42.7521C42.1674 43.2817 42.1064 43.9335 42.1064 44.565C42.1064 45.1761 42.1878 45.7872 42.1267 46.4187C42.086 46.8465 41.9638 47.315 41.638 47.5594C41.251 47.865 40.7012 47.8853 40.2125 47.865C39.5812 47.865 38.9499 47.7835 38.3186 47.8446C37.6262 47.9057 37.0763 48.1502 36.5672 48.6187C36.0988 49.0668 35.6916 49.5761 35.2232 50.0242C34.8566 50.4723 34.4493 50.7575 33.9809 50.7779C33.1867 50.7983 33.1867 52.0001 33.9809 52.0001V52.0001C34.7548 52.0001 34.7752 50.7779 33.9809 50.7779V50.7779C33.9809 51.1853 33.9809 51.5927 33.9809 52.0001C35.4472 51.9594 36.3025 50.7372 37.2393 49.7798C37.4429 49.5761 37.6465 49.352 37.9113 49.2501C38.0946 49.1687 38.4204 49.1483 38.6648 49.1483C39.3164 49.1483 39.9681 49.2094 40.5994 49.189C41.2714 49.1483 41.9231 48.9853 42.4526 48.5576C42.9413 48.1502 43.206 47.5391 43.2875 46.9076C43.3893 46.2558 43.3282 45.6039 43.3079 44.9317C43.2875 44.3409 43.2671 43.8317 43.6133 43.3835C44.4483 42.365 45.8331 41.6724 46.0978 40.2669C46.3625 38.8206 45.3239 37.8225 44.3464 36.9262C43.8984 36.5188 43.3893 36.1114 43.3078 35.5206C43.2264 34.9096 43.3282 34.2373 43.3282 33.6059C43.3282 32.954 43.2671 32.2818 42.9617 31.6911C42.6562 31.1207 42.1064 30.7133 41.4751 30.5503C40.8641 30.367 40.2125 30.3874 39.5812 30.4078C39.2553 30.4281 38.9295 30.4485 38.6037 30.4281C38.3593 30.4281 38.0131 30.4078 37.8502 30.3263C37.5854 30.2041 37.3614 29.9596 37.1578 29.7559C36.893 29.4911 36.6487 29.2059 36.3839 28.9207C35.9359 28.4319 35.4268 27.9837 34.8159 27.7393C34.1846 27.4745 33.4922 27.5152 32.8812 27.8004C32.311 28.0652 31.8223 28.5133 31.3946 28.9818C31.1706 29.2263 30.9466 29.4708 30.7226 29.7152C30.519 29.9392 30.2542 30.2041 29.9895 30.3059C29.4804 30.5096 28.7269 30.4078 28.1567 30.3874C26.9145 30.3467 25.4686 30.4689 24.8373 31.7318C24.5522 32.3226 24.4911 32.9744 24.4911 33.6059C24.4911 34.2374 24.6133 34.9503 24.4911 35.5614C24.3893 36.1318 23.8394 36.5596 23.3914 36.9466C22.9027 37.3744 22.4343 37.8225 22.0881 38.3725C21.7215 38.9429 21.579 39.6151 21.7419 40.2873C21.8844 40.9188 22.2917 41.4688 22.7397 41.9169C23.2285 42.4262 23.8394 42.8336 24.2671 43.4039C24.5929 43.8317 24.5522 44.4225 24.5318 44.9725C24.4911 46.1947 24.3689 47.6613 25.4279 48.5168C26.5275 49.3928 27.9938 49.0668 29.2971 49.1076C29.5211 49.1076 29.8266 49.1483 29.9691 49.2094C30.2542 49.3317 30.4782 49.5965 30.7022 49.8002C31.1503 50.2687 31.5779 50.7983 32.087 51.2057C32.6165 51.6335 33.2071 51.939 33.8995 51.939C34.7548 52.0205 34.7548 50.7983 33.9809 50.778L33.9809 50.7779Z" fill="white"/>
<path fill-rule="evenodd" clip-rule="evenodd" d="M31.3521 37.8611C31.2297 37.8611 31.1277 37.9019 31.0665 37.9835C31.0052 38.0652 30.9644 38.1876 30.9644 38.3304V40.1057L29.7811 38.31L29.6791 38.1468C29.6383 38.0856 29.5975 38.0448 29.5567 38.0039C29.5159 37.9631 29.4751 37.9223 29.4139 37.9019C29.3526 37.8815 29.2914 37.8611 29.2098 37.8611C29.1078 37.8611 29.0262 37.8815 28.9446 37.9427C28.863 38.0039 28.8018 38.0652 28.761 38.1467C28.7406 38.2284 28.7202 38.31 28.7202 38.4325V41.0852C28.7202 41.228 28.761 41.3505 28.8222 41.4321C28.9038 41.5137 29.0058 41.5545 29.1282 41.5545C29.2507 41.5545 29.3527 41.5137 29.4343 41.4321C29.5159 41.3505 29.5567 41.228 29.5567 41.0852V39.3711L30.7196 41.1464C30.7604 41.2076 30.8012 41.2484 30.842 41.3096C30.8828 41.3708 30.9236 41.4117 30.9848 41.4525C31.046 41.4933 31.0869 41.5341 31.1481 41.5545C31.2093 41.5749 31.2705 41.5953 31.3521 41.5953C31.5153 41.5953 31.8009 41.5341 31.8009 41.0648V38.3508C31.8009 38.208 31.7601 38.0855 31.6989 38.0039C31.5765 37.9019 31.4745 37.8611 31.3521 37.8611L31.3521 37.8611Z" fill="white"/>
<path fill-rule="evenodd" clip-rule="evenodd" d="M34.7549 40.7985H33.2271V39.9827H34.5919C34.7141 39.9827 34.816 39.9419 34.8975 39.8807C34.9586 39.8196 34.9993 39.738 34.9993 39.636C34.9993 39.534 34.9586 39.4525 34.8975 39.3913C34.8364 39.3301 34.7345 39.2893 34.6123 39.2893H33.2474V38.6163H34.7345C34.8568 38.6163 34.9586 38.5755 35.0401 38.5143C35.1216 38.4531 35.1419 38.3716 35.1419 38.2492C35.1419 38.1472 35.1012 38.0657 35.0401 38.0045C34.979 37.9433 34.8771 37.9025 34.7345 37.9025H32.9011C32.7993 37.9025 32.6974 37.9229 32.6159 37.9433C32.5345 37.9841 32.4733 38.0452 32.4326 38.1268C32.3918 38.2084 32.3715 38.29 32.3715 38.4124V41.0024C32.3715 41.1656 32.4122 41.3084 32.4937 41.3899C32.5752 41.4715 32.6974 41.5123 32.8808 41.5123H34.7753C34.8975 41.5123 34.9993 41.4715 35.0808 41.4103C35.1623 41.3491 35.1827 41.2472 35.1827 41.1452C35.1827 41.0432 35.1419 40.9413 35.0808 40.8801C34.979 40.8393 34.8771 40.7985 34.7549 40.7985H34.7549Z" fill="white"/>
<path fill-rule="evenodd" clip-rule="evenodd" d="M39.6259 37.9832C39.5445 37.9016 39.4426 37.8607 39.3407 37.8607C39.2185 37.8607 39.137 37.9015 39.0759 37.9627C39.0148 38.024 38.974 38.0852 38.9536 38.1464C38.9332 38.2076 38.9129 38.2892 38.8925 38.3913L38.5258 40.0645L38.0979 38.5137C38.0572 38.3504 38.0164 38.2484 37.9961 38.1668C37.9757 38.0852 37.9146 38.0035 37.8331 37.9423C37.7516 37.8811 37.6497 37.8403 37.5071 37.8403C37.3645 37.8403 37.2626 37.8811 37.1811 37.9423C37.0996 38.0036 37.0385 38.0852 37.0181 38.1668C36.9774 38.2484 36.957 38.3504 36.9163 38.5137L36.5088 40.0645L36.1421 38.3913C36.1013 38.228 36.0606 38.1056 36.0198 38.0239C35.9791 37.9423 35.8976 37.8607 35.6939 37.8607C35.5716 37.8607 35.4902 37.9015 35.4087 37.9832C35.3271 38.0648 35.2864 38.1464 35.2864 38.2688C35.2864 38.3504 35.3068 38.4525 35.3475 38.5953L35.918 40.9012C35.9384 40.9624 35.9587 41.044 35.9791 41.1256C35.9995 41.2073 36.0402 41.2889 36.081 41.3501C36.1217 41.4113 36.1828 41.4725 36.244 41.5134C36.3051 41.5542 36.407 41.5746 36.4884 41.5746C36.6107 41.5746 36.7125 41.5338 36.794 41.4725C36.8755 41.4113 36.9163 41.3297 36.957 41.2481C36.9774 41.1869 37.0181 41.0644 37.0589 40.9012L37.5479 39.1259L38.0164 40.9012C38.0572 41.0644 38.0979 41.1869 38.1183 41.2481C38.1387 41.3297 38.1998 41.3909 38.2813 41.4725C38.3628 41.5338 38.4646 41.5746 38.5869 41.5746C38.7295 41.5746 38.8314 41.5338 38.9129 41.4725C38.9944 41.4113 39.0351 41.3297 39.0759 41.2481C39.0962 41.1665 39.137 41.0644 39.1777 40.9012L39.7482 38.5953C39.7889 38.4525 39.8093 38.3301 39.8093 38.2688C39.7482 38.1464 39.7074 38.0444 39.6259 37.9832V37.9832Z" fill="white"/>
<path fill-rule="evenodd" clip-rule="evenodd" d="M34.2233 47.2306C31.1469 47.2102 28.2741 45.2349 27.2351 42.3432C26.1552 39.3701 27.0721 36.0507 29.5169 34.0347C30.6375 33.0979 32.1656 32.4666 33.6325 32.3648C35.2216 32.2426 36.7497 32.6092 38.1147 33.4237C39.3983 34.1976 40.3966 35.338 41.0486 36.7431C41.6598 38.0871 41.8635 39.757 41.5579 41.2232C41.2523 42.7504 40.5189 44.0945 39.3983 45.1534C38.2981 46.2123 36.9331 46.8844 35.3846 47.1287C35.0586 47.1898 34.6104 47.2306 34.2233 47.2306C33.4287 47.2306 33.4287 48.4524 34.2233 48.4524C37.8499 48.432 41.1097 46.1309 42.3729 42.7301C43.6157 39.3497 42.5359 35.399 39.765 33.1183C38.3592 31.9779 36.6682 31.2855 34.8753 31.143C33.1027 31.0004 31.2691 31.4484 29.741 32.3648C26.6238 34.2586 25.0143 37.9649 25.7478 41.549C26.4405 44.9905 29.3539 47.8007 32.8379 48.3302C33.3065 48.3913 33.7547 48.4524 34.2233 48.4524C35.0179 48.4524 35.0179 47.2305 34.2233 47.2305L34.2233 47.2306Z" fill="white"/>
</svg>
